<svg width="50" height="50" viewBox="0 0 50 50" fill="none" xmlns="http://www.w3.org/2000/svg">
<g clip-path="url(#clip0_5_263)">
<path d="M25 50C38.8071 50 50 38.8071 50 25C50 11.1929 38.8071 0 25 0C11.1929 0 0 11.1929 0 25C0 38.8071 11.1929 50 25 50Z" fill="#D5A150"/>
<path d="M40.5504 5.42554C43.946 9.69409 45.9758 15.0977 45.9758 20.9759C45.9758 34.7831 34.7829 45.9759 20.9758 45.9759C15.0976 45.9759 9.69385 43.9461 5.42529 40.5505C10.0054 46.3081 17.071 50 24.9999 50C38.807 50 49.9999 38.8072 49.9999 25C49.9999 17.0712 46.3079 10.0055 40.5504 5.42554Z" fill="#AD712C"/>
<path d="M13.6281 14.1875C13.1132 14.1875 12.5983 13.991 12.2054 13.5981C10.0481 11.4408 10.0481 7.93047 12.2054 5.77295C13.2505 4.72783 14.6399 4.15234 16.118 4.15234C17.596 4.15234 18.9855 4.72793 20.0306 5.77295C20.8163 6.55879 20.8163 7.83271 20.0306 8.61855C19.2447 9.4042 17.9707 9.4043 17.185 8.61855C16.8999 8.3335 16.521 8.17646 16.118 8.17646C15.715 8.17646 15.336 8.3335 15.051 8.61855C14.4625 9.20703 14.4625 10.1644 15.051 10.7526C15.8368 11.5385 15.8368 12.8124 15.051 13.5981C14.658 13.9911 14.1431 14.1875 13.6281 14.1875Z" fill="#C98A2E"/>
<path d="M16.1178 13.2072C18.0624 13.2072 19.6389 11.6308 19.6389 9.68613C19.6389 7.74149 18.0624 6.16504 16.1178 6.16504C14.1731 6.16504 12.5967 7.74149 12.5967 9.68613C12.5967 11.6308 14.1731 13.2072 16.1178 13.2072Z" fill="#674230"/>
<path d="M12.6128 9.34903C12.6115 9.3626 12.6104 9.37608 12.6092 9.38965C12.5132 10.5546 13.4702 11.5366 14.6384 11.4942C14.7157 11.4914 14.7938 11.4861 14.8721 11.4782C16.5296 11.311 17.8586 9.9709 18.0139 8.31221C18.0151 8.29864 18.0163 8.28516 18.0174 8.27168C18.1134 7.10684 17.1564 6.12471 15.9882 6.16709C15.9108 6.16993 15.8328 6.1752 15.7545 6.18311C14.0971 6.3502 12.7681 7.69034 12.6128 9.34903Z" fill="#7A5436"/>
<path d="M5.58005 30.2841C5.06511 30.2841 4.55017 30.0876 4.1573 29.6947C1.99998 27.5374 1.99998 24.0271 4.1573 21.8695C5.20242 20.8245 6.59187 20.249 8.0699 20.249C9.54793 20.249 10.9374 20.8246 11.9825 21.8696C12.7682 22.6555 12.7682 23.9294 11.9825 24.7152C11.1966 25.5009 9.92263 25.501 9.13689 24.7152C8.85183 24.4302 8.47293 24.2731 8.0699 24.2731C7.66687 24.2731 7.28787 24.4302 7.00291 24.7152C6.41443 25.3037 6.41443 26.261 7.00291 26.8493C7.78875 27.6352 7.78875 28.9091 7.00291 29.6948C6.60994 30.0877 6.0949 30.2841 5.58005 30.2841Z" fill="#C98A2E"/>
<path d="M8.06943 29.3039C10.0141 29.3039 11.5905 27.7275 11.5905 25.7828C11.5905 23.8382 10.0141 22.2617 8.06943 22.2617C6.12479 22.2617 4.54834 23.8382 4.54834 25.7828C4.54834 27.7275 6.12479 29.3039 8.06943 29.3039Z" fill="#674230"/>
<path d="M4.56446 25.4455C4.56319 25.459 4.56202 25.4725 4.56084 25.4861C4.46485 26.6511 5.42188 27.6331 6.59004 27.5907C6.66739 27.5878 6.74541 27.5826 6.82374 27.5747C8.48125 27.4075 9.81026 26.0673 9.96553 24.4086C9.9668 24.3951 9.96797 24.3816 9.96905 24.3681C10.065 23.2033 9.10801 22.2211 7.93985 22.2635C7.86251 22.2664 7.78448 22.2716 7.70616 22.2795C6.04883 22.4466 4.71983 23.7868 4.56446 25.4455Z" fill="#7A5436"/>
<path d="M12.6223 40.3445C12.1073 40.3445 11.5924 40.148 11.1995 39.7551C9.04221 37.5978 9.04221 34.0875 11.1995 31.9299C12.2447 30.8848 13.634 30.3093 15.1121 30.3093C16.5903 30.3093 17.9796 30.8849 19.0247 31.9299C19.8105 32.7158 19.8105 33.9897 19.0247 34.7755C18.2388 35.5612 16.9649 35.5613 16.1791 34.7755C15.8942 34.4905 15.5152 34.3334 15.1121 34.3334C14.7091 34.3334 14.3301 34.4905 14.0451 34.7755C13.4567 35.364 13.4567 36.3213 14.0451 36.9096C14.831 37.6955 14.831 38.9694 14.0451 39.7551C13.6522 40.1481 13.1371 40.3445 12.6223 40.3445Z" fill="#C98A2E"/>
<path d="M15.1117 39.3642C17.0563 39.3642 18.6328 37.7878 18.6328 35.8431C18.6328 33.8985 17.0563 32.322 15.1117 32.322C13.167 32.322 11.5906 33.8985 11.5906 35.8431C11.5906 37.7878 13.167 39.3642 15.1117 39.3642Z" fill="#674230"/>
<path d="M11.6067 35.5058C11.6054 35.5193 11.6043 35.5328 11.6031 35.5464C11.5071 36.7113 12.4641 37.6934 13.6323 37.651C13.7096 37.6481 13.7877 37.6429 13.866 37.635C15.5235 37.4678 16.8525 36.1276 17.0078 34.4689C17.009 34.4554 17.0102 34.4419 17.0113 34.4284C17.1073 33.2636 16.1502 32.2815 14.9821 32.3238C14.9047 32.3267 14.8267 32.3319 14.7484 32.3398C13.091 32.5069 11.7621 33.8471 11.6067 35.5058Z" fill="#7A5436"/>
<path d="M23.6887 47.3867C23.1738 47.3867 22.6588 47.1902 22.2659 46.7974C20.1086 44.64 20.1086 41.1297 22.2659 38.9722C23.3111 37.9271 24.7004 37.3516 26.1785 37.3516C27.6566 37.3516 29.046 37.9271 30.0911 38.9722C30.8769 39.758 30.8769 41.0319 30.0911 41.8178C29.3052 42.6034 28.0313 42.6035 27.2455 41.8178C26.9605 41.5327 26.5816 41.3757 26.1785 41.3757C25.7755 41.3757 25.3965 41.5327 25.1115 41.8178C24.5231 42.4062 24.5231 43.3636 25.1115 43.9519C25.8974 44.7377 25.8974 46.0116 25.1115 46.7974C24.7186 47.1903 24.2035 47.3867 23.6887 47.3867Z" fill="#C98A2E"/>
<path d="M26.1781 46.4064C28.1227 46.4064 29.6992 44.83 29.6992 42.8854C29.6992 40.9407 28.1227 39.3643 26.1781 39.3643C24.2334 39.3643 22.657 40.9407 22.657 42.8854C22.657 44.83 24.2334 46.4064 26.1781 46.4064Z" fill="#674230"/>
<path d="M22.6731 42.548C22.6718 42.5616 22.6707 42.575 22.6695 42.5886C22.5735 43.7536 23.5305 44.7356 24.6987 44.6932C24.776 44.6904 24.8541 44.6851 24.9324 44.6772C26.5899 44.51 27.9189 43.1699 28.0742 41.5112C28.0754 41.4976 28.0766 41.4841 28.0777 41.4707C28.1737 40.3058 27.2167 39.3238 26.0485 39.3661C25.9711 39.3689 25.8931 39.3742 25.8148 39.3821C24.1574 39.5493 22.8284 40.8894 22.6731 42.548Z" fill="#7A5436"/>
<path d="M25.7007 19.2314C25.1857 19.2314 24.6708 19.035 24.2779 18.6421C22.1206 16.4848 22.1206 12.9744 24.2779 10.8169C25.323 9.77178 26.7124 9.19629 28.1905 9.19629C29.6686 9.19629 31.058 9.77188 32.1031 10.8169C32.8888 11.6027 32.8888 12.8767 32.1031 13.6625C31.3172 14.4481 30.0432 14.4482 29.2575 13.6625C28.9724 13.3774 28.5935 13.2204 28.1905 13.2204C27.7875 13.2204 27.4085 13.3774 27.1235 13.6625C26.535 14.251 26.535 15.2083 27.1235 15.7966C27.9093 16.5824 27.9093 17.8563 27.1235 18.6421C26.7305 19.0351 26.2156 19.2314 25.7007 19.2314Z" fill="#C98A2E"/>
<path d="M28.19 18.2504C30.1347 18.2504 31.7111 16.674 31.7111 14.7293C31.7111 12.7847 30.1347 11.2083 28.19 11.2083C26.2454 11.2083 24.6689 12.7847 24.6689 14.7293C24.6689 16.674 26.2454 18.2504 28.19 18.2504Z" fill="#674230"/>
<path d="M24.6851 14.3927C24.6838 14.4063 24.6826 14.4198 24.6815 14.4334C24.5855 15.5983 25.5425 16.5803 26.7107 16.5379C26.788 16.5351 26.866 16.5298 26.9443 16.5219C28.6019 16.3547 29.9309 15.0146 30.0861 13.3559C30.0874 13.3423 30.0886 13.3289 30.0897 13.3154C30.1856 12.1505 29.2286 11.1684 28.0605 11.2108C27.9831 11.2136 27.9051 11.2189 27.8268 11.2268C26.1693 11.3939 24.8403 12.734 24.6851 14.3927Z" fill="#7A5436"/>
<path d="M37.7732 37.3264C37.2582 37.3264 36.7433 37.1299 36.3504 36.7371C34.1931 34.5797 34.1931 31.0694 36.3504 28.9119C37.3955 27.8667 38.7849 27.2913 40.263 27.2913C41.7411 27.2913 43.1305 27.8668 44.1756 28.9119C44.9614 29.6977 44.9614 30.9716 44.1756 31.7575C43.3897 32.5431 42.1157 32.5432 41.33 31.7575C41.0449 31.4724 40.666 31.3154 40.263 31.3154C39.86 31.3154 39.481 31.4724 39.196 31.7575C38.6075 32.3459 38.6075 33.3033 39.196 33.8916C39.9819 34.6774 39.9819 35.9513 39.196 36.7371C38.8031 37.13 38.288 37.3264 37.7732 37.3264Z" fill="#C98A2E"/>
<path d="M40.2625 36.3459C42.2072 36.3459 43.7836 34.7695 43.7836 32.8248C43.7836 30.8802 42.2072 29.3037 40.2625 29.3037C38.3179 29.3037 36.7415 30.8802 36.7415 32.8248C36.7415 34.7695 38.3179 36.3459 40.2625 36.3459Z" fill="#674230"/>
<path d="M36.7575 32.4877C36.7562 32.5013 36.755 32.5147 36.754 32.5283C36.658 33.6933 37.615 34.6753 38.7832 34.6329C38.8605 34.6301 38.9385 34.6248 39.0169 34.6169C40.6744 34.4497 42.0034 33.1096 42.1586 31.4509C42.1599 31.4373 42.1611 31.4238 42.1622 31.4103C42.2582 30.2455 41.3011 29.2635 40.133 29.3058C40.0556 29.3086 39.9776 29.3139 39.8993 29.3218C38.2419 29.489 36.9128 30.8291 36.7575 32.4877Z" fill="#7A5436"/>
<path d="M36.7671 18.2117C36.2521 18.2117 35.7372 18.0152 35.3443 17.6223C33.187 15.465 33.187 11.9546 35.3443 9.79712C36.3894 8.752 37.7788 8.17651 39.2569 8.17651C40.735 8.17651 42.1244 8.7521 43.1695 9.79712C43.9552 10.583 43.9552 11.8569 43.1695 12.6427C42.3836 13.4284 41.1096 13.4285 40.3239 12.6427C40.0388 12.3578 39.6599 12.2006 39.2569 12.2006C38.8539 12.2006 38.4749 12.3577 38.1899 12.6427C37.6014 13.2312 37.6014 14.1885 38.1899 14.7768C38.9758 15.5626 38.9758 16.8366 38.1899 17.6223C37.7969 18.0153 37.282 18.2117 36.7671 18.2117Z" fill="#C98A2E"/>
<path d="M39.2564 17.2314C41.2011 17.2314 42.7775 15.6549 42.7775 13.7103C42.7775 11.7657 41.2011 10.1892 39.2564 10.1892C37.3118 10.1892 35.7354 11.7657 35.7354 13.7103C35.7354 15.6549 37.3118 17.2314 39.2564 17.2314Z" fill="#674230"/>
<path d="M35.7514 13.373C35.7501 13.3865 35.7489 13.4 35.7479 13.4136C35.6519 14.5786 36.6089 15.5606 37.7771 15.5182C37.8544 15.5153 37.9324 15.5101 38.0107 15.5022C39.6683 15.335 40.9973 13.9948 41.1525 12.3361C41.1538 12.3226 41.155 12.3091 41.1561 12.2956C41.2521 11.1308 40.295 10.1486 39.1269 10.191C39.0495 10.1939 38.9715 10.1991 38.8932 10.207C37.2357 10.3741 35.9067 11.7143 35.7514 13.373Z" fill="#7A5436"/>
<path d="M21.6765 30.2842C21.1615 30.2842 20.6466 30.0877 20.2537 29.6948C18.0964 27.5375 18.0964 24.0271 20.2537 21.8696C21.2989 20.8245 22.6882 20.249 24.1663 20.249C25.6445 20.249 27.0338 20.8246 28.0789 21.8696C28.8647 22.6555 28.8647 23.9294 28.0789 24.7152C27.293 25.5009 26.0191 25.501 25.2333 24.7152C24.9484 24.4302 24.5694 24.2731 24.1663 24.2731C23.7633 24.2731 23.3843 24.4302 23.0993 24.7152C22.5109 25.3037 22.5109 26.261 23.0993 26.8493C23.8852 27.6352 23.8852 28.9091 23.0993 29.6948C22.7064 30.0878 22.1913 30.2842 21.6765 30.2842Z" fill="#C98A2E"/>
<path d="M24.1661 29.3039C26.1108 29.3039 27.6872 27.7275 27.6872 25.7828C27.6872 23.8382 26.1108 22.2617 24.1661 22.2617C22.2215 22.2617 20.645 23.8382 20.645 25.7828C20.645 27.7275 22.2215 29.3039 24.1661 29.3039Z" fill="#674230"/>
<path d="M20.6609 25.4455C20.6596 25.459 20.6585 25.4725 20.6573 25.4861C20.5613 26.6511 21.5183 27.6331 22.6865 27.5907C22.7638 27.5878 22.8419 27.5826 22.9202 27.5747C24.5777 27.4075 25.9067 26.0673 26.062 24.4086C26.0632 24.3951 26.0644 24.3816 26.0655 24.3681C26.1615 23.2033 25.2044 22.2211 24.0363 22.2635C23.9589 22.2664 23.8809 22.2716 23.8026 22.2795C22.1453 22.4466 20.8163 23.7868 20.6609 25.4455Z" fill="#7A5436"/>
<path d="M12.6759 29.5271C13.0926 29.5271 13.4304 29.1893 13.4304 28.7726C13.4304 28.3559 13.0926 28.0181 12.6759 28.0181C12.2592 28.0181 11.9214 28.3559 11.9214 28.7726C11.9214 29.1893 12.2592 29.5271 12.6759 29.5271Z" fill="#AD712C"/>
<path d="M17.7062 29.5271C18.1228 29.5271 18.4606 29.1893 18.4606 28.7726C18.4606 28.3559 18.1228 28.0181 17.7062 28.0181C17.2895 28.0181 16.9517 28.3559 16.9517 28.7726C16.9517 29.1893 17.2895 29.5271 17.7062 29.5271Z" fill="#AD712C"/>
<path d="M15.191 25C15.6077 25 15.9455 24.6622 15.9455 24.2455C15.9455 23.8288 15.6077 23.491 15.191 23.491C14.7743 23.491 14.4365 23.8288 14.4365 24.2455C14.4365 24.6622 14.7743 25 15.191 25Z" fill="#AD712C"/>
<path d="M6.13682 34.0544C6.55351 34.0544 6.89131 33.7166 6.89131 33.2999C6.89131 32.8832 6.55351 32.5454 6.13682 32.5454C5.72012 32.5454 5.38232 32.8832 5.38232 33.2999C5.38232 33.7166 5.72012 34.0544 6.13682 34.0544Z" fill="#AD712C"/>
<path d="M16.1971 45.1208C16.6138 45.1208 16.9516 44.783 16.9516 44.3663C16.9516 43.9496 16.6138 43.6118 16.1971 43.6118C15.7804 43.6118 15.4426 43.9496 15.4426 44.3663C15.4426 44.783 15.7804 45.1208 16.1971 45.1208Z" fill="#AD712C"/>
<path d="M19.2152 41.0966C19.6319 41.0966 19.9697 40.7588 19.9697 40.3421C19.9697 39.9254 19.6319 39.5876 19.2152 39.5876C18.7985 39.5876 18.4607 39.9254 18.4607 40.3421C18.4607 40.7588 18.7985 41.0966 19.2152 41.0966Z" fill="#AD712C"/>
<path d="M24.2455 35.0603C24.6622 35.0603 25 34.7225 25 34.3058C25 33.8891 24.6622 33.5513 24.2455 33.5513C23.8288 33.5513 23.491 33.8891 23.491 34.3058C23.491 34.7225 23.8288 35.0603 24.2455 35.0603Z" fill="#AD712C"/>
<path d="M32.2936 32.0422C32.7102 32.0422 33.048 31.7044 33.048 31.2877C33.048 30.871 32.7102 30.5332 32.2936 30.5332C31.8769 30.5332 31.5391 30.871 31.5391 31.2877C31.5391 31.7044 31.8769 32.0422 32.2936 32.0422Z" fill="#AD712C"/>
<path d="M30.2816 34.0544C30.6983 34.0544 31.0361 33.7166 31.0361 33.2999C31.0361 32.8832 30.6983 32.5454 30.2816 32.5454C29.8649 32.5454 29.5271 32.8832 29.5271 33.2999C29.5271 33.7166 29.8649 34.0544 30.2816 34.0544Z" fill="#AD712C"/>
<path d="M33.2997 37.0725C33.7164 37.0725 34.0541 36.7347 34.0541 36.318C34.0541 35.9013 33.7164 35.5635 33.2997 35.5635C32.883 35.5635 32.5452 35.9013 32.5452 36.318C32.5452 36.7347 32.883 37.0725 33.2997 37.0725Z" fill="#AD712C"/>
<path d="M33.2997 43.1086C33.7164 43.1086 34.0541 42.7708 34.0541 42.3541C34.0541 41.9374 33.7164 41.5996 33.2997 41.5996C32.883 41.5996 32.5452 41.9374 32.5452 42.3541C32.5452 42.7708 32.883 43.1086 33.2997 43.1086Z" fill="#AD712C"/>
<path d="M44.3661 21.9819C44.7828 21.9819 45.1206 21.6441 45.1206 21.2274C45.1206 20.8107 44.7828 20.4729 44.3661 20.4729C43.9494 20.4729 43.6116 20.8107 43.6116 21.2274C43.6116 21.6441 43.9494 21.9819 44.3661 21.9819Z" fill="#AD712C"/>
<path d="M41.348 42.1025C41.7647 42.1025 42.1025 41.7647 42.1025 41.348C42.1025 40.9313 41.7647 40.5935 41.348 40.5935C40.9313 40.5935 40.5935 40.9313 40.5935 41.348C40.5935 41.7647 40.9313 42.1025 41.348 42.1025Z" fill="#AD712C"/>
<path d="M26.2574 3.87324C26.6741 3.87324 27.0119 3.53544 27.0119 3.11875C27.0119 2.70206 26.6741 2.36426 26.2574 2.36426C25.8407 2.36426 25.5029 2.70206 25.5029 3.11875C25.5029 3.53544 25.8407 3.87324 26.2574 3.87324Z" fill="#AD712C"/>
<path d="M8.14878 12.9274C8.56547 12.9274 8.90327 12.5896 8.90327 12.1729C8.90327 11.7563 8.56547 11.4185 8.14878 11.4185C7.73208 11.4185 7.39429 11.7563 7.39429 12.1729C7.39429 12.5896 7.73208 12.9274 8.14878 12.9274Z" fill="#AD712C"/>
<path d="M4.12461 18.9638C4.5413 18.9638 4.8791 18.626 4.8791 18.2093C4.8791 17.7926 4.5413 17.4548 4.12461 17.4548C3.70791 17.4548 3.37012 17.7926 3.37012 18.2093C3.37012 18.626 3.70791 18.9638 4.12461 18.9638Z" fill="#AD712C"/>
<path d="M15.6939 20.4729C16.1106 20.4729 16.4484 20.1351 16.4484 19.7184C16.4484 19.3017 16.1106 18.9639 15.6939 18.9639C15.2773 18.9639 14.9395 19.3017 14.9395 19.7184C14.9395 20.1351 15.2773 20.4729 15.6939 20.4729Z" fill="#AD712C"/>
<path d="M18.7123 18.9638C19.129 18.9638 19.4667 18.626 19.4667 18.2093C19.4667 17.7926 19.129 17.4548 18.7123 17.4548C18.2956 17.4548 17.9578 17.7926 17.9578 18.2093C17.9578 18.626 18.2956 18.9638 18.7123 18.9638Z" fill="#AD712C"/>
<path d="M15.6939 17.4548C16.1106 17.4548 16.4484 17.117 16.4484 16.7003C16.4484 16.2836 16.1106 15.9458 15.6939 15.9458C15.2773 15.9458 14.9395 16.2836 14.9395 16.7003C14.9395 17.117 15.2773 17.4548 15.6939 17.4548Z" fill="#AD712C"/>
<path d="M29.7787 25C30.1954 25 30.5332 24.6622 30.5332 24.2455C30.5332 23.8288 30.1954 23.491 29.7787 23.491C29.362 23.491 29.0242 23.8288 29.0242 24.2455C29.0242 24.6622 29.362 25 29.7787 25Z" fill="#AD712C"/>
<path d="M23.2394 9.90938C23.656 9.90938 23.9938 9.57158 23.9938 9.15488C23.9938 8.73819 23.656 8.40039 23.2394 8.40039C22.8227 8.40039 22.4849 8.73819 22.4849 9.15488C22.4849 9.57158 22.8227 9.90938 23.2394 9.90938Z" fill="#AD712C"/>
<path d="M32.7967 18.9638C33.2134 18.9638 33.5512 18.626 33.5512 18.2093C33.5512 17.7926 33.2134 17.4548 32.7967 17.4548C32.38 17.4548 32.0422 17.7926 32.0422 18.2093C32.0422 18.626 32.38 18.9638 32.7967 18.9638Z" fill="#AD712C"/>
<path d="M34.3058 23.4909C34.7225 23.4909 35.0603 23.1531 35.0603 22.7364C35.0603 22.3197 34.7225 21.9819 34.3058 21.9819C33.8891 21.9819 33.5513 22.3197 33.5513 22.7364C33.5513 23.1531 33.8891 23.4909 34.3058 23.4909Z" fill="#AD712C"/>
<path d="M37.3238 23.4909C37.7405 23.4909 38.0783 23.1531 38.0783 22.7364C38.0783 22.3197 37.7405 21.9819 37.3238 21.9819C36.9071 21.9819 36.5693 22.3197 36.5693 22.7364C36.5693 23.1531 36.9071 23.4909 37.3238 23.4909Z" fill="#AD712C"/>
<path d="M37.3238 26.509C37.7405 26.509 38.0783 26.1712 38.0783 25.7545C38.0783 25.3378 37.7405 25 37.3238 25C36.9071 25 36.5693 25.3378 36.5693 25.7545C36.5693 26.1712 36.9071 26.509 37.3238 26.509Z" fill="#AD712C"/>
<path d="M31.7906 8.40034C32.2073 8.40034 32.5451 8.06254 32.5451 7.64585C32.5451 7.22915 32.2073 6.89136 31.7906 6.89136C31.3739 6.89136 31.0361 7.22915 31.0361 7.64585C31.0361 8.06254 31.3739 8.40034 31.7906 8.40034Z" fill="#AD712C"/>
<path d="M34.8087 6.89131C35.2254 6.89131 35.5632 6.55351 35.5632 6.13682C35.5632 5.72012 35.2254 5.38232 34.8087 5.38232C34.392 5.38232 34.0542 5.72012 34.0542 6.13682C34.0542 6.55351 34.392 6.89131 34.8087 6.89131Z" fill="#AD712C"/>
</g>
<defs>
<clipPath id="clip0_5_263">
<rect width="50" height="50" fill="white"/>
</clipPath>
</defs>
</svg>
